<svg width="42" height="27" viewBox="0 0 42 27" fill="none" xmlns="http://www.w3.org/2000/svg">
<path d="M13.3636 0H28.6364C30.3913 -2.64175e-08 32.1291 0.349188 33.7504 1.02763C35.3718 1.70606 36.845 2.70047 38.0859 3.95406C39.3268 5.20765 40.3112 6.69588 40.9828 8.33377C41.6543 9.97167 42 11.7272 42 13.5C42 15.2728 41.6543 17.0283 40.9828 18.6662C40.3112 20.3041 39.3268 21.7924 38.0859 23.0459C36.845 24.2995 35.3718 25.2939 33.7504 25.9724C32.1291 26.6508 30.3913 27 28.6364 27H13.3636C11.6087 27 9.87095 26.6508 8.24959 25.9724C6.62824 25.2939 5.15505 24.2995 3.91412 23.0459C2.67319 21.7924 1.68883 20.3041 1.01725 18.6662C0.345661 17.0283 0 15.2728 0 13.5C0 11.7272 0.345661 9.97167 1.01725 8.33377C1.68883 6.69588 2.67319 5.20765 3.91412 3.95406C5.15505 2.70047 6.62824 1.70606 8.24959 1.02763C9.87095 0.349188 11.6087 -2.64175e-08 13.3636 0ZM28.6364 19.2857C30.1553 19.2857 31.6121 18.6762 32.6862 17.5911C33.7602 16.5061 34.3636 15.0345 34.3636 13.5C34.3636 11.9655 33.7602 10.4939 32.6862 9.40888C31.6121 8.32385 30.1553 7.71429 28.6364 7.71429C27.1174 7.71429 25.6606 8.32385 24.5866 9.40888C23.5125 10.4939 22.9091 11.9655 22.9091 13.5C22.9091 15.0345 23.5125 16.5061 24.5866 17.5911C25.6606 18.6762 27.1174 19.2857 28.6364 19.2857Z" fill="#40BD16"/>
</svg>
