<svg width="13" height="13" viewBox="0 0 13 13" fill="none" xmlns="http://www.w3.org/2000/svg">
<path d="M11.2502 7.29036H7.29183V11.2487C7.29183 11.4587 7.20842 11.66 7.05996 11.8085C6.91149 11.957 6.71013 12.0404 6.50016 12.0404C6.2902 12.0404 6.08884 11.957 5.94037 11.8085C5.7919 11.66 5.7085 11.4587 5.7085 11.2487V7.29036H1.75016C1.5402 7.29036 1.33884 7.20696 1.19037 7.05849C1.0419 6.91002 0.958496 6.70866 0.958496 6.4987C0.958496 6.28873 1.0419 6.08737 1.19037 5.93891C1.33884 5.79044 1.5402 5.70703 1.75016 5.70703H5.7085V1.7487C5.7085 1.53873 5.7919 1.33737 5.94037 1.1889C6.08884 1.04044 6.2902 0.957031 6.50016 0.957031C6.71013 0.957031 6.91149 1.04044 7.05996 1.1889C7.20842 1.33737 7.29183 1.53873 7.29183 1.7487V5.70703H11.2502C11.4601 5.70703 11.6615 5.79044 11.81 5.93891C11.9584 6.08737 12.0418 6.28873 12.0418 6.4987C12.0418 6.70866 11.9584 6.91002 11.81 7.05849C11.6615 7.20696 11.4601 7.29036 11.2502 7.29036Z" fill="white"/>
</svg>
