<svg width="30" height="30" viewBox="0 0 30 30" fill="none" xmlns="http://www.w3.org/2000/svg">
<path d="M13.7773 5.22266H5.22179C4.57348 5.22266 3.95173 5.4802 3.4933 5.93862C3.03488 6.39704 2.77734 7.01879 2.77734 7.6671V24.7782C2.77734 25.4265 3.03488 26.0483 3.4933 26.5067C3.95173 26.9651 4.57348 27.2227 5.22179 27.2227H22.3329C22.9812 27.2227 23.603 26.9651 24.0614 26.5067C24.5198 26.0483 24.7773 25.4265 24.7773 24.7782V16.2227" stroke="#0B0A0A" stroke-width="1.5" stroke-linecap="round" stroke-linejoin="round"/>
<path d="M22.9437 3.39025C23.4299 2.90402 24.0894 2.63086 24.777 2.63086C25.4647 2.63086 26.1241 2.90402 26.6104 3.39025C27.0966 3.87648 27.3697 4.53595 27.3697 5.22358C27.3697 5.91122 27.0966 6.57069 26.6104 7.05692L14.9992 18.668L10.1104 19.8903L11.3326 15.0014L22.9437 3.39025Z" stroke="#0B0A0A" stroke-width="1.5" stroke-linecap="round" stroke-linejoin="round"/>
</svg>
