<svg width="18" height="27" viewBox="0 0 18 27" fill="none" xmlns="http://www.w3.org/2000/svg">
<path d="M9 25.5054H2C1.73478 25.5054 1.48043 25.3768 1.29289 25.1479C1.10536 24.9189 1 24.6084 1 24.2846V2.31062C1 1.98685 1.10536 1.67634 1.29289 1.4474C1.48043 1.21846 1.73478 1.08984 2 1.08984H16C16.2652 1.08984 16.5196 1.21846 16.7071 1.4474C16.8946 1.67634 17 1.98685 17 2.31062V13.2976M14.75 25.5054V17.5704" stroke="#C72030" stroke-width="2" stroke-linecap="round" stroke-linejoin="round"/>
<path d="M12.5 19.7057L13.25 18.7902L14.75 16.959L16.25 18.7902L17 19.7057" stroke="#C72030" stroke-width="2" stroke-linecap="round" stroke-linejoin="round"/>
<path d="M5 8.41406H13M5 13.2972H9" stroke="#C72030" stroke-width="2" stroke-linecap="round"/>
</svg>
